<?xml version="1.0" standalone="no"?>
<!DOCTYPE svg PUBLIC "-//W3C//DTD SVG 20010904//EN"
 "http://www.w3.org/TR/2001/REC-SVG-20010904/DTD/svg10.dtd">
<svg version="1.0" xmlns="http://www.w3.org/2000/svg"
 width="1024.000000pt" height="1024.000000pt" viewBox="0 0 1024.000000 1024.000000"
 preserveAspectRatio="xMidYMid meet">
<metadata>
Created by potrace 1.11, written by Peter Selinger 2001-2013
</metadata>
<g transform="translate(0.000000,1024.000000) scale(0.100000,-0.100000)"
fill="#000000" stroke="none">
<path d="M6049 9398 c10 -18 39 -69 64 -113 279 -489 508 -997 667 -1475 29
-89 107 -353 115 -393 2 -10 7 -27 10 -37 3 -10 8 -27 10 -37 2 -10 22 -101
44 -203 37 -172 75 -384 87 -490 3 -25 7 -56 9 -70 3 -22 20 -189 31 -305 8
-94 16 -605 9 -605 -4 0 -34 26 -65 58 -69 68 -1235 1221 -1540 1522 -118 116
-343 338 -499 493 l-283 282 6 -105 c4 -58 8 -127 11 -155 2 -27 6 -90 10
-140 8 -129 15 -223 20 -280 3 -27 7 -90 10 -140 3 -49 7 -112 10 -140 4 -46
10 -120 19 -270 12 -175 18 -274 21 -305 2 -19 7 -82 10 -140 4 -58 8 -121 10
-140 2 -19 6 -82 10 -140 4 -58 8 -116 10 -130 2 -14 7 -77 10 -140 4 -63 8
-131 10 -150 3 -34 12 -160 20 -285 2 -33 7 -91 10 -130 3 -38 7 -98 9 -133
l5 -62 -872 2 c-574 2 -872 6 -871 13 1 6 5 40 9 77 3 37 8 77 10 90 5 35 26
169 31 203 4 29 44 239 48 260 3 13 18 85 21 106 7 35 97 378 115 434 113 355
192 568 310 835 62 140 270 563 301 610 5 8 28 49 50 90 86 158 113 206 126
225 33 49 6 37 -148 -65 -203 -134 -451 -347 -619 -530 -47 -51 -90 -97 -96
-104 -71 -77 -301 -384 -334 -447 -7 -13 -16 -26 -19 -29 -3 -3 -13 -16 -21
-30 -8 -14 -36 -61 -63 -105 -72 -119 -228 -441 -291 -600 -49 -125 -121 -337
-132 -390 -2 -11 -8 -31 -14 -45 -19 -49 -91 -369 -105 -470 -3 -25 -11 -74
-16 -110 -6 -35 -12 -82 -14 -105 -3 -22 -7 -56 -9 -75 -21 -149 -28 -640 -12
-805 4 -44 9 -102 11 -130 3 -27 7 -67 10 -87 3 -21 7 -57 10 -80 4 -24 13
-81 21 -128 21 -124 24 -143 29 -160 2 -8 7 -31 10 -50 16 -98 87 -348 152
-535 109 -314 275 -654 452 -925 30 -47 59 -86 63 -88 4 -2 8 -8 8 -13 0 -12
126 -179 228 -302 88 -107 301 -322 419 -425 100 -86 306 -242 321 -242 5 0
12 -4 14 -8 4 -10 158 -104 158 -96 0 2 -20 39 -44 82 -116 205 -137 246 -255
477 -224 437 -392 858 -521 1306 -23 79 -44 155 -47 169 -2 14 -9 43 -15 65
-6 22 -12 45 -14 51 -1 7 -9 45 -19 85 -25 111 -62 304 -75 394 -6 44 -13 91
-16 105 -6 40 -23 179 -29 250 -4 36 -8 79 -10 97 -3 17 -7 87 -10 155 -3 68
-8 133 -11 145 -4 21 -1 23 43 23 241 3 1785 1 1788 -2 3 -3 14 -136 30 -378
3 -47 7 -107 9 -135 2 -27 7 -90 10 -140 4 -49 9 -117 11 -150 3 -33 7 -96 10
-140 3 -44 7 -105 10 -135 5 -58 10 -128 30 -415 4 -49 8 -112 10 -140 3 -41
14 -205 19 -292 3 -40 16 -37 17 3 0 21 2 48 4 59 4 17 11 81 20 175 1 14 5
48 9 75 6 47 10 87 21 215 3 30 8 69 10 85 2 17 7 57 10 90 3 33 8 76 10 95 3
19 7 62 11 95 3 33 7 71 9 85 2 14 6 54 10 90 3 36 8 81 10 100 2 19 7 60 10
90 3 30 8 71 10 90 3 19 7 62 10 95 4 33 8 71 10 85 2 14 7 54 10 90 3 36 8
83 11 105 2 22 6 60 9 85 10 102 16 157 20 190 2 19 7 60 10 90 3 30 8 71 10
90 3 19 7 64 10 100 3 35 8 78 10 95 6 46 14 115 20 168 2 26 7 73 10 105 3
31 10 93 15 137 5 44 12 107 15 140 4 33 8 71 10 85 3 22 16 145 20 190 1 14
13 123 21 185 2 17 6 66 10 110 3 44 8 83 10 86 3 5 17 137 17 167 0 6 2 11 3
10 1 -2 262 -259 579 -573 317 -313 642 -634 721 -711 130 -129 143 -144 138
-170 -50 -285 -205 -801 -343 -1147 -108 -271 -275 -628 -391 -837 -26 -47
-62 -112 -79 -145 -18 -33 -40 -73 -50 -90 -44 -75 -81 -145 -76 -145 9 0 138
81 220 138 256 178 512 418 724 676 350 429 609 919 778 1471 27 88 76 277 88
340 5 22 9 45 10 50 24 108 41 218 70 430 27 206 27 780 0 993 -24 186 -37
272 -61 387 -27 136 -54 252 -79 340 -9 33 -18 65 -19 70 -16 66 -116 351
-152 433 -8 17 -21 48 -29 67 -38 88 -51 117 -105 225 -62 124 -133 251 -215
383 -25 41 -117 174 -192 277 -103 141 -361 419 -523 562 -142 126 -478 368
-510 368 -5 0 -1 -15 9 -32z"/>
</g>
</svg>
